<svg width="24" height="18" viewBox="0 0 24 18" fill="none" xmlns="http://www.w3.org/2000/svg">
  <path d="M1.2 7.2C1.2 3.5 3.9 1 7.5 1C11.1 1 13.8 3.5 13.8 7.2V10.8C13.8 14.5 11.1 17 7.5 17C3.9 17 1.2 14.5 1.2 10.8V7.2Z" fill="currentColor"/>
  <path d="M1.4 7.2H13.6" stroke="var(--mouse-bg, #fff)" stroke-width="1.3" stroke-linecap="round"/>
  <path d="M5.2 1.7V7.1" stroke="var(--mouse-bg, #fff)" stroke-width="1.3" stroke-linecap="round"/>
  <path d="M9.8 1.7V7.1" stroke="var(--mouse-bg, #fff)" stroke-width="1.3" stroke-linecap="round"/>
  <rect x="5.9" y="3.1" width="3.2" height="7" rx="1.6" fill="currentColor" stroke="var(--mouse-bg, #fff)" stroke-width="1.3"/>
  <rect x="6.85" y="4.6" width="1.3" height="3.7" rx="0.65" fill="var(--mouse-wheel-active, #1677ff)"/>
  <path d="M19.1 2.2L21.8 5H20.2V13H21.8L19.1 15.8L16.4 13H18V5H16.4L19.1 2.2Z" fill="var(--mouse-wheel-active, #1677ff)"/>
</svg>
