<svg viewBox="0 0 17.5 17.5" xmlns="http://www.w3.org/2000/svg" xmlns:xlink="http://www.w3.org/1999/xlink" width="17.500000" height="17.500000" fill="none" customFrame="#000000">
	<path id="形状" d="M8.75 0C10.8593 0 12.8542 0.74964 14.426 2.09078C14.7017 2.32603 14.7345 2.74025 14.4992 3.01596C14.264 3.29167 13.8498 3.32447 13.574 3.08922C12.2376 1.94892 10.5441 1.3125 8.75 1.3125C4.64294 1.3125 1.3125 4.64294 1.3125 8.75C1.3125 12.8576 4.64262 16.1875 8.75 16.1875C12.8574 16.1875 16.1875 12.8576 16.1875 8.75C16.1875 7.30289 15.7745 5.91947 15.0085 4.73041C14.8122 4.42573 14.9 4.01961 15.2047 3.82333C15.5094 3.62704 15.9155 3.7149 16.1118 4.01959C17.0134 5.41909 17.5 7.04895 17.5 8.75C17.5 13.5825 13.5822 17.5 8.75 17.5C3.91777 17.5 0 13.5825 0 8.75C0 3.91806 3.91806 0 8.75 0ZM11.8125 7.00938C11.8125 6.28488 11.2254 5.69775 10.5009 5.69775L6.99913 5.69775C6.27462 5.69775 5.6875 6.28488 5.6875 7.00938L5.6875 10.5111C5.6875 11.2356 6.27462 11.8228 6.99913 11.8228L10.5009 11.8228C11.2254 11.8228 11.8125 11.2356 11.8125 10.5111L11.8125 7.00938Z" fill="rgb(25,25,25)" fill-rule="evenodd" />
	<path id="形状" d="M8.75 0C10.8593 0 12.8542 0.74964 14.426 2.09078C14.5781 2.22058 14.6563 2.40487 14.6563 2.59031C14.6563 2.74096 14.6047 2.89238 14.4992 3.01596C14.264 3.29167 13.8498 3.32447 13.574 3.08922C12.2376 1.94892 10.5441 1.3125 8.75 1.3125C4.64294 1.3125 1.3125 4.64294 1.3125 8.75C1.3125 12.8576 4.64262 16.1875 8.75 16.1875C12.8574 16.1875 16.1875 12.8576 16.1875 8.75C16.1875 7.30289 15.7745 5.91947 15.0085 4.73041C14.9376 4.62048 14.9038 4.49734 14.9038 4.37562C14.9038 4.15998 15.01 3.94879 15.2047 3.82333C15.5094 3.62704 15.9155 3.7149 16.1118 4.01959C17.0134 5.41909 17.5 7.04895 17.5 8.75C17.5 13.5825 13.5822 17.5 8.75 17.5C3.91777 17.5 0 13.5825 0 8.75C0 3.91806 3.91806 0 8.75 0ZM10.5009 5.69775C11.2254 5.69775 11.8125 6.28488 11.8125 7.00938L11.8125 10.5111C11.8125 11.2356 11.2254 11.8228 10.5009 11.8228L6.99913 11.8228C6.27462 11.8228 5.6875 11.2356 5.6875 10.5111L5.6875 7.00938C5.6875 6.28488 6.27462 5.69775 6.99913 5.69775L10.5009 5.69775ZM11.0212 6.79332Q10.9801 6.69427 10.898 6.61221C10.7884 6.50257 10.656 6.44775 10.5009 6.44775L6.99913 6.44775Q6.88253 6.44775 6.78306 6.48904Q6.68401 6.53015 6.60195 6.61221Q6.51993 6.69424 6.47881 6.79325L6.47878 6.79332Q6.4375 6.89278 6.4375 7.00938L6.4375 10.5111C6.4375 10.6663 6.49232 10.7987 6.60195 10.9083Q6.684 10.9903 6.78303 11.0315L6.78307 11.0315L6.78311 11.0315Q6.88256 11.0728 6.99913 11.0728L10.5009 11.0728Q10.6175 11.0728 10.7169 11.0315L10.717 11.0315Q10.816 10.9903 10.898 10.9083Q10.9801 10.8263 11.0212 10.7272L11.0212 10.7272Q11.0625 10.6277 11.0625 10.5111L11.0625 7.00938Q11.0625 6.89278 11.0212 6.79332Z" fill="rgb(151,151,151)" fill-opacity="0" fill-rule="evenodd" />
</svg>
