<svg viewBox="0 0 16 16" xmlns="http://www.w3.org/2000/svg" xmlns:xlink="http://www.w3.org/1999/xlink" width="16.000000" height="16.000000" fill="none" customFrame="#000000">
	<rect id="03箭头/chevron-double-right" width="16.000000" height="16.000000" x="0.000000" y="0.000000" />
	<path id="形状结合" d="M4.63543 9.44497L0.010304 4.81985C-0.00343466 4.80611 -0.00343466 4.78384 0.010304 4.7701L4.63543 0.144975C4.82873 -0.0483249 5.14213 -0.0483249 5.33543 0.144975C5.52873 0.338274 5.52873 0.651675 5.33543 0.844975L1.38543 4.79497L5.33543 8.74497C5.52873 8.93827 5.52873 9.25167 5.33543 9.44497C5.14213 9.63827 4.82873 9.63827 4.63543 9.44497ZM7.93523 9.44497L3.31011 4.81985C3.29637 4.80611 3.29637 4.78384 3.31011 4.7701L7.93523 0.144975C8.12853 -0.0483249 8.44193 -0.0483249 8.63523 0.144975C8.82853 0.338274 8.82853 0.651675 8.63523 0.844975L4.68523 4.79497L8.63523 8.74497C8.82853 8.93827 8.82853 9.25167 8.63523 9.44497C8.44193 9.63827 8.12853 9.63827 7.93523 9.44497Z" fill="currentColor" fill-rule="evenodd" transform="matrix(-1,0,0,1,12.4901,3.20496)" />
</svg>
