<svg viewBox="0 0 16 16" xmlns="http://www.w3.org/2000/svg" xmlns:xlink="http://www.w3.org/1999/xlink" width="16.000000" height="16.000000" fill="none" customFrame="#000000">
	<rect id="01公共/help" width="16.000000" height="16.000000" x="0.000000" y="0.000000" />
	<path id="形状结合" d="M1 8C1 4.13401 4.13401 1 8 1C11.866 1 15 4.13401 15 8C15 11.866 11.866 15 8 15C4.13401 15 1 11.866 1 8ZM14 8C14 4.68629 11.3137 2 8 2C4.68629 2 2 4.68629 2 8C2 11.3137 4.68629 14 8 14C11.3137 14 14 11.3137 14 8ZM8.24002 8.78627C8.24002 8.89911 8.25484 9.04329 8.28447 9.21882C8.28447 9.21882 8.28002 9.5 7.945 9.5C7.60997 9.5 7.53781 9.21882 7.53781 9.21882C7.4667 8.97434 7.43115 8.72985 7.43115 8.48537C7.43115 8.23461 7.47115 8.01363 7.55114 7.82243C7.63114 7.63123 7.72892 7.46824 7.84447 7.33346C7.96003 7.19868 8.11262 7.04666 8.30225 6.8774C8.53335 6.66426 8.70372 6.47933 8.81335 6.32261C8.92298 6.16589 8.97779 5.98096 8.97779 5.76782C8.97779 5.59797 8.94027 5.45071 8.86523 5.32603C8.82671 5.26204 8.77831 5.204 8.72002 5.1519C8.54817 4.99832 8.32299 4.92152 8.04447 4.92152C7.89404 4.92152 7.75273 4.94607 7.62054 4.99516C7.50277 5.0389 7.39223 5.10211 7.28893 5.18481C7.06967 5.36034 6.89189 5.62677 6.7556 5.98409C6.7556 5.98409 6.5479 6.22836 6.25029 6.11564C5.95269 6.00293 6.00894 5.52333 6.00894 5.52333C6.16894 5.04063 6.43857 4.66607 6.81782 4.39964C6.93394 4.31806 7.05562 4.24897 7.18286 4.19238C7.47117 4.06413 7.788 4 8.13336 4C8.49484 4 8.81631 4.07052 9.09779 4.21157C9.37927 4.35262 9.60001 4.55009 9.76 4.80398C9.80751 4.87937 9.84797 4.95765 9.88137 5.03884C9.96045 5.23109 10 5.4396 10 5.66438C10 5.89006 9.96 6.0938 9.88 6.27559C9.8 6.45739 9.70223 6.61411 9.58667 6.74576C9.47112 6.8774 9.31557 7.03413 9.12001 7.21592C8.92446 7.39772 8.76891 7.55444 8.65335 7.68609C8.5378 7.81773 8.44002 7.97602 8.36002 8.16095C8.28002 8.34588 8.24002 8.55432 8.24002 8.78627ZM7.25 11.25C7.25 10.8358 7.58579 10.5 8 10.5C8.41421 10.5 8.75 10.8358 8.75 11.25C8.75 11.6642 8.41421 12 8 12C7.58579 12 7.25 11.6642 7.25 11.25Z" fill="currentColor" fill-rule="evenodd" />
</svg>
