<svg viewBox="0 0 16 16" xmlns="http://www.w3.org/2000/svg" xmlns:xlink="http://www.w3.org/1999/xlink" width="16.000000" height="16.000000" fill="none">
	<rect id="容器 91332834" width="16.000000" height="16.000000" x="0.000000" y="0.000000" fill="currentColor" fill-opacity="0" />
	<g id="页面-1">
		<path id="grab" d="M7.14037 1.18433C7.62485 0.947975 8.21024 0.938498 8.73758 1.15832L8.90042 1.23714C9.31243 1.47049 9.54705 1.88604 9.61529 2.41408L9.58926 2.26473L9.73874 2.13658L9.88872 2.03516L10.0518 1.9481C10.5996 1.69007 11.4108 1.8363 11.8065 2.26189C12.1273 2.60522 12.3089 3.04014 12.3481 3.54222C12.3591 3.68139 12.361 3.83142 12.3563 4.00936L12.3383 4.46344L12.3659 4.41777C12.5387 4.14737 12.7295 3.97465 12.9877 3.83549L13.1512 3.75551C13.8467 3.45284 14.6239 3.84268 14.896 4.52138C14.983 4.7389 14.9796 4.95851 14.9328 5.40854L14.8547 6.06438C14.8213 6.26806 14.7764 6.47849 14.7213 6.69812L14.5451 7.34541L14.4671 7.68088L14.3841 8.08799L14.0843 9.71195L14.01 10.0453L13.9757 10.175C13.8711 10.5412 13.5909 11.1575 13.3185 11.5473L13.1469 11.7544L12.9025 12.0669C12.6307 12.4276 12.4171 12.7601 12.3849 12.9132L12.3412 13.1416L12.3212 13.296L12.3049 13.7519L12.3083 13.8311C12.3147 13.9235 12.3294 14.0264 12.3499 14.1321L12.3952 14.3318C12.4705 14.6041 12.2874 14.8801 12.0072 14.9164L11.8547 14.9337L11.5249 14.9605L11.3065 14.9696C11.1131 14.9739 10.9451 14.9668 10.8047 14.944C10.421 14.8832 10.0713 14.5295 9.79341 14.0996L9.70475 13.9545L9.58872 14.1298C9.31328 14.5285 9.01664 14.8272 8.70173 14.9265L8.56565 14.9565C8.53133 14.9608 8.49592 14.9648 8.45914 14.9684L8.21972 14.9862L7.93361 14.9966L7.38673 15L5.78158 14.9775C5.49331 14.9748 5.27704 14.7129 5.32893 14.4293L5.34228 14.3325C5.35817 14.1929 5.36273 14.0479 5.34991 13.9208C5.33624 13.7853 5.30542 13.7039 5.28768 13.6889L5.15747 13.5744L4.25237 12.7277L3.51094 11.9054L3.4143 11.7633L2.56875 10.3942L2.41558 10.1604L2.3294 10.0438L2.21599 9.90752L1.653 9.27878C1.47213 9.06781 1.36237 8.9147 1.27314 8.74319C1.0092 8.24016 0.915901 7.6597 1.08533 7.2139C1.35892 6.49161 1.95274 6.11966 2.74526 6.19464C3.27931 6.24609 3.65503 6.41225 4.07389 6.76775L4.03362 6.73526L4.00294 6.71048L3.77878 6.16639L3.68836 5.91443L3.60377 5.7036L3.3785 5.19741L3.26061 4.91071C3.23983 4.85535 3.21805 4.79478 3.19584 4.73078L3.06165 4.3198C2.99634 4.10795 2.93704 3.89724 2.89872 3.73572C2.77366 3.20079 2.89607 2.69971 3.19034 2.30641C3.52978 1.85159 4.35307 1.65155 4.89289 1.84151C5.29159 1.98122 5.69989 2.35182 5.92726 2.71667C6.03259 2.88491 6.10416 3.00513 6.17704 3.15189L6.22148 3.24455L6.22319 3.06332C6.22382 3.02341 6.22931 2.95606 6.23748 2.87667L6.30152 2.37911C6.39004 1.81165 6.67072 1.41278 7.14037 1.18433ZM8.23787 1.96738C7.99463 1.90181 7.74802 1.92158 7.54723 2.01954C7.35823 2.11147 7.26227 2.24784 7.21944 2.52242L7.17717 2.83506L7.15208 3.07984C7.14885 3.24385 7.14661 3.39606 7.14543 3.54411L7.1451 3.98334L7.15006 4.37451L7.18497 5.60749L7.22313 6.61506C7.23741 7.18632 6.40785 7.27411 6.30224 6.71252L6.22568 6.30372C6.15085 5.80538 5.98226 5.12477 5.7233 4.47112C5.69587 4.40176 5.67044 4.33758 5.64675 4.278L5.47337 3.85031L5.38851 3.65673L5.31317 3.50387L5.23441 3.36387L5.13931 3.20885C5.01486 3.00916 4.76276 2.78033 4.58508 2.71807C4.40946 2.65627 4.01739 2.75154 3.93455 2.86253C3.79808 3.04492 3.74352 3.26825 3.80302 3.52274C3.82524 3.6164 3.85648 3.73196 3.89226 3.85514L4.00873 4.23328L4.12554 4.5715L4.17565 4.69888L4.45965 5.34223L4.55831 5.58839L4.68626 5.93542L4.89153 6.43264L4.96079 6.62333L5.03012 6.83917L5.14767 7.26269L5.41766 8.33078L5.43156 8.42916C5.46213 8.85782 4.96516 9.13373 4.62686 8.8108C4.6184 8.80273 4.60594 8.78858 4.591 8.77054L4.48408 8.63335L4.13096 8.147L4.06657 8.0673C3.9358 7.9092 3.65536 7.6303 3.47361 7.47681C3.19461 7.24002 2.99585 7.15212 2.65696 7.11947C2.28271 7.08406 2.07982 7.21115 1.95394 7.54347C1.89303 7.70376 1.94431 8.02279 2.09656 8.31297C2.12856 8.37447 2.17171 8.44034 2.23318 8.5203L2.38266 8.70192L2.93548 9.31896L3.06931 9.48138L3.18047 9.63313L3.41981 10.0011L4.04111 11.0181L4.22034 11.3063L4.90374 12.0674L5.77396 12.8793L5.88827 12.9801C6.12781 13.1819 6.23866 13.4748 6.27426 13.8276C6.28106 13.895 6.28487 13.963 6.28608 14.0312L6.28713 14.0561L7.55529 14.0712L8.02122 14.0646L8.25858 14.0529L8.44975 14.0347C8.46205 14.0332 8.50602 13.9902 8.56697 13.9203L8.70718 13.749L8.86659 13.5317C8.92003 13.4544 8.97232 13.3739 9.0191 13.2942C9.33306 12.7629 10.1064 12.7334 10.4213 13.3338C10.4548 13.3973 10.4965 13.4663 10.5418 13.5354L10.684 13.7371C10.708 13.7689 10.7317 13.7994 10.7545 13.8278L10.877 13.9682C10.9115 14.0032 10.9379 14.0245 10.9518 14.0267C11.0277 14.039 11.1442 14.0439 11.2859 14.0408L11.3968 14.0362L11.3815 13.8956L11.3758 13.7584L11.3865 13.4149L11.4052 13.1236C11.4096 13.0878 11.415 13.0503 11.4214 13.0099L11.4755 12.7232C11.5684 12.2811 12.0018 11.672 12.5635 11.0014L12.5818 10.9831C12.7663 10.7165 13.0045 10.1925 13.0824 9.91991C13.0888 9.89737 13.0956 9.87208 13.1027 9.84416L13.1487 9.64607L13.2056 9.36804L13.4293 8.1353L13.519 7.67472L13.6053 7.27783C13.6336 7.15708 13.6614 7.04836 13.6886 6.95307L13.8201 6.47228C13.8932 6.18088 13.9454 5.91192 13.9724 5.6633L14.0206 5.18778L14.0357 4.92914L14.0335 4.86673C13.9457 4.6476 13.7059 4.52732 13.526 4.60558C13.3405 4.68847 13.2498 4.7599 13.1487 4.91815L12.9609 5.20994L12.8811 5.34232L12.7685 5.56921L12.5883 6.00267L12.4491 6.36502L12.297 6.79989C12.1745 7.17374 11.5266 7.52388 11.3799 6.75687C11.3689 6.69962 11.3671 6.643 11.3684 6.58069L11.4019 4.99841L11.4037 4.59776L11.4297 3.84568C11.4298 3.75883 11.4273 3.683 11.4219 3.61497C11.3986 3.31652 11.3002 3.08081 11.1269 2.89533C11.009 2.76849 10.6338 2.70087 10.4474 2.78867C10.2322 2.88991 10.0892 3.05829 10.0021 3.32024C9.97707 3.39558 9.9535 3.50672 9.93143 3.65075L9.88931 3.98181L9.85134 4.3954L9.81761 4.88633L9.72466 6.64586L9.71064 6.72071C9.72938 6.77008 9.73719 6.79065 9.62839 6.84969L9.5041 6.91128L9.17822 7.05958L8.87158 6.82325L8.81531 6.76954C8.80437 6.75597 8.80028 6.7458 8.80005 6.73619L8.80803 6.70624L8.79629 6.62728L8.7845 5.39209L8.77056 4.57969C8.76887 4.45236 8.76772 4.32982 8.76713 4.2071L8.77069 3.42927L8.76091 3.27878L8.69387 2.53279C8.65666 2.24493 8.55693 2.08816 8.38301 2.01703L8.23787 1.96738ZM9.25213 8.4591C9.47661 8.45808 9.66463 8.61644 9.70892 8.82791L9.71879 8.92148L9.73266 11.9329C9.73384 12.1895 9.52683 12.3984 9.27028 12.3996C9.04581 12.4006 8.85779 12.2423 8.8135 12.0308L8.80363 11.9372L8.78976 8.92576C8.78858 8.66922 8.99559 8.46029 9.25213 8.4591ZM11.0154 8.46084C11.2398 8.46084 11.4271 8.62007 11.4704 8.83174L11.4799 8.92536L11.4799 11.9247C11.4799 12.1812 11.2719 12.3892 11.0154 12.3892C10.7909 12.3892 10.6036 12.23 10.5603 12.0183L10.5508 11.9247L10.5508 8.92536C10.5508 8.66881 10.7588 8.46084 11.0154 8.46084ZM7.53456 8.48685C7.75904 8.48549 7.9473 8.64356 7.99191 8.85497L8.00192 8.94852L8.02013 11.9192C8.0217 12.1758 7.81501 12.385 7.55847 12.3866C7.33399 12.3879 7.14573 12.2299 7.10112 12.0185L7.09111 11.9249L7.0729 8.95422C7.07133 8.69768 7.27802 8.48843 7.53456 8.48685Z" fill="currentColor" fill-rule="nonzero" />
	</g>
</svg>
